<svg width="24.000000" height="24.000000" viewBox="0 0 24 24" fill="none" xmlns="http://www.w3.org/2000/svg" xmlns:xlink="http://www.w3.org/1999/xlink">
	<desc>
			Created with Pixso.
	</desc>
	<defs/>
	<path id="telegram" d="M1.6499 10.61C8.09229 7.78748 12.3882 5.92676 14.5378 5.02783C20.675 2.46094 21.9502 2.01501 22.7815 2.00012C22.9644 1.99707 23.373 2.0426 23.6379 2.25867C23.8613 2.44104 23.9229 2.6875 23.9524 2.86047C23.9819 3.03345 24.0186 3.42737 23.9893 3.73523C23.6567 7.24915 22.2178 15.7762 21.4856 19.7118C21.1758 21.3771 20.5659 21.9354 19.9753 21.9901C18.6919 22.1089 17.7173 21.1372 16.4744 20.318C14.5293 19.0359 13.4304 18.2378 11.5425 16.9867C9.3606 15.5409 10.7751 14.7462 12.0186 13.4475C12.344 13.1077 17.9985 7.93591 18.1079 7.4668C18.1216 7.40808 18.1343 7.18945 18.0051 7.07385C17.8757 6.95837 17.6851 6.99792 17.5476 7.0293C17.3525 7.07385 14.2451 9.13904 8.22583 13.2247C7.34375 13.8337 6.54492 14.1305 5.82935 14.115C5.04028 14.0978 3.52222 13.6664 2.39404 13.2975C1.01001 12.8451 -0.0900879 12.606 0.00585938 11.8376C0.0556641 11.4375 0.60376 11.0283 1.6499 10.61Z" fill="#FAFAFA" fill-opacity="1.000000" fill-rule="nonzero"/>
</svg>
