<svg width="24.000000" height="24.000000" viewBox="0 0 24 24" fill="none" xmlns="http://www.w3.org/2000/svg" xmlns:xlink="http://www.w3.org/1999/xlink">
	<desc>
			Created with Pixso.
	</desc>
	<defs>
		<clipPath id="clip206_1740">
			<rect rx="5.000000" width="24.000000" height="24.000000" fill="white" fill-opacity="0"/>
		</clipPath>
	</defs>
	<g clip-path="url(#clip206_1740)">
		<path d="M14 4C17.7712 4 19.6567 4 20.8284 5.17157C22 6.34315 22 8.22876 22 12L22 14C22 17.7712 22 19.6569 20.8284 20.8284C19.6567 22 17.7712 22 14 22L10 22C6.22876 22 4.34326 22 3.17163 20.8284C2 19.6569 2 17.7712 2 14L2 12C2 8.22876 2 6.34315 3.17163 5.17157C4.34326 4 6.22876 4 10 4L14 4Z" stroke="#AFB2BF" stroke-opacity="1.000000" stroke-width="1.500000"/>
		<path d="M7 4L7 2.5" stroke="#AFB2BF" stroke-opacity="1.000000" stroke-width="1.500000" stroke-linecap="round"/>
		<path d="M17 4L17 2.5" stroke="#AFB2BF" stroke-opacity="1.000000" stroke-width="1.500000" stroke-linecap="round"/>
		<path d="M2.5 9L21.5 9" stroke="#AFB2BF" stroke-opacity="1.000000" stroke-width="1.500000" stroke-linecap="round"/>
		<path d="M17 14C17.5522 14 18 13.5523 18 13C18 12.4477 17.5522 12 17 12C16.4478 12 16 12.4477 16 13C16 13.5523 16.4478 14 17 14ZM17 18C17.5522 18 18 17.5523 18 17C18 16.4477 17.5522 16 17 16C16.4478 16 16 16.4477 16 17C16 17.5523 16.4478 18 17 18Z" fill="#AFB2BF" fill-opacity="1.000000" fill-rule="evenodd"/>
		<path d="M12 14C12.5522 14 13 13.5523 13 13C13 12.4477 12.5522 12 12 12C11.4478 12 11 12.4477 11 13C11 13.5523 11.4478 14 12 14ZM12 18C12.5522 18 13 17.5523 13 17C13 16.4477 12.5522 16 12 16C11.4478 16 11 16.4477 11 17C11 17.5523 11.4478 18 12 18Z" fill="#AFB2BF" fill-opacity="1.000000" fill-rule="evenodd"/>
		<path d="M7 14C7.55225 14 8 13.5523 8 13C8 12.4477 7.55225 12 7 12C6.44775 12 6 12.4477 6 13C6 13.5523 6.44775 14 7 14ZM7 18C7.55225 18 8 17.5523 8 17C8 16.4477 7.55225 16 7 16C6.44775 16 6 16.4477 6 17C6 17.5523 6.44775 18 7 18Z" fill="#AFB2BF" fill-opacity="1.000000" fill-rule="evenodd"/>
	</g>
</svg>
