<svg width="24.000000" height="24.000000" viewBox="0 0 24 24" fill="none" xmlns="http://www.w3.org/2000/svg" xmlns:xlink="http://www.w3.org/1999/xlink">
	<desc>
			Created with Pixso.
	</desc>
	<defs>
		<clipPath id="clip206_1743">
			<rect width="24.000000" height="24.000000" fill="white" fill-opacity="0"/>
		</clipPath>
	</defs>
	<g clip-path="url(#clip206_1743)">
		<path d="M12 4C16.1819 4 19.0281 6.49956 20.7251 8.70433C21.575 9.80853 22 10.3606 22 12C22 13.6394 21.575 14.1915 20.7251 15.2957C19.0281 17.5004 16.1819 20 12 20C7.81812 20 4.97192 17.5004 3.2749 15.2957C2.42505 14.1915 2 13.6394 2 12C2 10.3606 2.42505 9.80853 3.2749 8.70433C4.97192 6.49956 7.81812 4 12 4Z" stroke="#AFB2BF" stroke-opacity="1.000000" stroke-width="1.500000"/>
		<path d="M12 15C10.3433 15 9 13.6569 9 12C9 10.3431 10.3433 9 12 9C13.6567 9 15 10.3431 15 12C15 13.6569 13.6567 15 12 15Z" stroke="#AFB2BF" stroke-opacity="1.000000" stroke-width="1.500000"/>
	</g>
</svg>
